# xmcd
# 
# Track frame offsets:
#     150
#     15945
#     36537
#     61025
#     78225
#     98055
#     115780
#     134944
#     151785
#     171570
# 
# Disc length: 2534
# 
# Revision: 2
# Processed by: cddbd v1.5.2PL0 Copyright (c) Steve Scherf et al.
# Submitted via: fre:ac v1.0.31
# 
DISCID=7a09e40a
DTITLE=Staind - Staind
DYEAR=2011
DGENRE=Rock/Pop
TTITLE0=Eyes Wide Open
TTITLE1=Not Again
TTITLE2=Failing
TTITLE3=Wannabe
TTITLE4=Throw It All Away
TTITLE5=Take A Breath
TTITLE6=The Bottom
TTITLE7=Now
TTITLE8=Paper Wings
TTITLE9=Something To Remind You
EXTD=
EXTT0=
EXTT1=
EXTT2=
EXTT3=
EXTT4=
EXTT5=
EXTT6=
EXTT7=
EXTT8=
EXTT9=
PLAYORDER=
